<svg xmlns="http://www.w3.org/2000/svg" viewBox="0 0 64 64" role="img" aria-label="Universo do Café">
  <rect width="64" height="64" rx="8" fill="#120C08"/>
  <path d="M18 24h25v11c0 8-5 13-13 13s-12-5-12-13V24Z" fill="#F4E7D0"/>
  <path d="M43 27h4c4 0 7 3 7 7s-3 7-7 7h-4v-5h4c1 0 2-1 2-2s-1-2-2-2h-4v-5Z" fill="#C68A4A"/>
  <path d="M21 19c0-4 5-4 5-8M32 19c0-4 5-4 5-8" fill="none" stroke="#C68A4A" stroke-width="4" stroke-linecap="round"/>
  <path d="M14 50h34" stroke="#6F7D3C" stroke-width="4" stroke-linecap="round"/>
</svg>
